<svg xmlns="http://www.w3.org/2000/svg" xmlns:svg="http://www.w3.org/2000/svg" id="svg3790" width="50mm" height="50mm" version="1.1" viewBox="0 0 50 50"><metadata id="metadata3787"/><g id="layer1" transform="translate(-87.115936,-83.441986)"><g id="logo" transform="matrix(0.01396314,0,0,0.01396314,18.403102,71.599589)" style="stroke-width:.58136749;fill:#000"><path style="fill:#000;fill-opacity:1;stroke:none;stroke-width:.77839899" id="path1482" d="M 4921.0159,848.11845 V 4427.6574 h 698.5017 V 2014.3905 l 513.5931,516.0984 -242.4055,243.5876 678.4845,681.8654 242.75,-244.6281 1210.4382,1216.3436 1.3107,1.3175 1.3117,-1.3175 h 476.8721 V 848.12395 H 8023.6883 L 6935.0748,1942.0493 6826.9864,1833.2256 6612.6048,2048.6539 5429.8454,848.11845 Z M 7824.6995,2011.8244 v 1253.4504 l -533.539,-536.1426 213.0014,-214.0412 -90.0745,-90.7209 z"/><path style="fill:#000;stroke:none;stroke-width:.77839899" id="path1498" d="m 6828.2981,2003.7092 -765.3151,769.0494 88.9985,91.2718 203.6838,-204.6779 34.7174,36.2748 36.0988,34.8874 -203.683,204.6775 63.4313,63.7406 202.9925,-203.9839 34.7884,36.2051 36.0279,34.8878 -193.8409,211.4097 57.2489,57.5297 203.0644,-203.984 34.7166,36.2053 36.0304,34.9569 -202.9934,203.984 77.6182,77.997 765.3149,-769.0494 -255.1047,-255.0319 z"/></g></g></svg>