<svg xmlns="http://www.w3.org/2000/svg" xmlns:svg="http://www.w3.org/2000/svg" xmlns:xlink="http://www.w3.org/1999/xlink" id="svg8" width="128mm" height="128mm" version="1.1" viewBox="0 0 128 128"><defs id="defs2"><linearGradient id="linearGradient1473"><stop style="stop-color:#f2f2f2;stop-opacity:1" id="stop1469" offset="0"/><stop style="stop-color:#fff;stop-opacity:1" id="stop1471" offset="1"/></linearGradient><linearGradient id="linearGradient1475" x1="14.781" x2="118.664" y1="101.372" y2="19.366" gradientTransform="translate(-0.72570515)" gradientUnits="userSpaceOnUse" xlink:href="#linearGradient1473"/></defs><metadata id="metadata5"/><g id="layer1" style="display:inline"><rect style="fill:url(#linearGradient1475);fill-opacity:1;stroke-width:.248" id="rect1769" width="107.877" height="87.71" x="10.062" y="19.366" rx="13.809" ry="13.809"/><g id="g1950" transform="matrix(1.2016875,0,0,1.2427344,35.1595,32.108941)"><path id="path1936" fill="#ff9100" d="M 24,4 C 12.955,4 4,12.954 4,24 c 0,7.393 4.022,13.833 9.987,17.295 l 4.506,-7.783 C 15.212,31.608 13,28.066 13,24 c 0,-6.075 4.925,-11 11,-11 6.075,0 11,4.925 11,11 0,4.066 -2.212,7.608 -5.493,9.512 l 4.506,7.783 C 39.978,37.833 44,31.393 44,24 44,12.954 35.045,4 24,4 Z"/><path id="path1938" fill="#1a237e" d="m 30,24 c 0,-3.314 -2.687,-6 -6,-6 -3.313,0 -6,2.686 -6,6 0,2.556 1.601,4.733 3.852,5.597 l -2.56,13.822 C 20.805,43.785 22.376,44 24,44 c 1.624,0 3.195,-0.215 4.707,-0.58 L 26.147,29.598 C 28.399,28.733 30,26.556 30,24 Z"/></g><g id="g1216" transform="matrix(0.08700265,0,0,0.08695124,93.974416,96.235715)"><g id="g1159"><path style="fill:#d7443e" id="path1155" d="m 314.101,54.133 c 71.79,71.847 71.744,188.287 -0.103,260.077 -71.847,71.79 -188.287,71.744 -260.077,-0.103 -71.75,-71.806 -71.75,-188.167 0,-259.974 71.381,-71.847 187.49,-72.224 259.337,-0.843 0.282,0.28 0.563,0.561 0.843,0.843 z"/><polygon style="fill:#d4e1f4" id="polygon1157" points="124.452 275.651 92.582 243.782 152.142 184.223 92.582 124.663 124.452 92.794 184.011 152.353 243.57 92.794 275.439 124.663 215.88 184.223 275.439 243.782 243.57 275.651 184.011 216.092"/></g></g></g></svg>